<?xml version="1.0" encoding="utf-8"?>
<!DOCTYPE svg PUBLIC "-//W3C//DTD SVG 1.1//EN" "http://www.w3.org/Graphics/SVG/1.1/DTD/svg11.dtd">
<svg version="1.1" id="fax_dark_icon" xmlns="http://www.w3.org/2000/svg" xmlns:xlink="http://www.w3.org/1999/xlink" x="0px" y="0px"
	 width="64px" height="64px" viewBox="0 0 64 64" enable-background="new 0 0 64 64" xml:space="preserve">
<g id="Fax-dunkel-Icon">
	<path fill="#CCCCCC" d="M54.367,29.864c0-1.786-1.887-3.249-4.195-3.249H49.24v-3.232c0-1.336-0.951-2.462-2.211-2.731v-1.776
		l-9.371-9.22H16.973v10.996c-1.262,0.27-2.215,1.396-2.215,2.731v3.232h-0.93c-2.308,0-4.194,1.463-4.194,3.249
		c0,0.14,0,12.883,0,12.883c0,2.307,1.886,4.193,4.194,4.193h3.146v7.404h30.057V46.94h3.143c2.309,0,4.195-1.887,4.195-4.193
		C54.367,42.747,54.367,30.004,54.367,29.864z M43.713,18.555h-6.09v-5.993L43.713,18.555z M35.525,12.451v8.2h8.707v5.964H19.769
		V12.451H35.525z M44.232,51.55H19.769V40.089h24.464V51.55z M50.172,43.446h-3.143v-6.154H16.973v6.154h-3.146
		c-0.38,0-0.699-0.32-0.699-0.699v-9.682h37.743v9.682C50.871,43.126,50.555,43.446,50.172,43.446z"/>
</g>
</svg>
