<?xml version="1.0" encoding="utf-8"?>
<!DOCTYPE svg PUBLIC "-//W3C//DTD SVG 1.1//EN" "http://www.w3.org/Graphics/SVG/1.1/DTD/svg11.dtd">
<svg version="1.1" id="sms_dark_icon" xmlns="http://www.w3.org/2000/svg" xmlns:xlink="http://www.w3.org/1999/xlink" x="0px" y="0px" viewBox="0 0 64 64" style="enable-background:new 0 0 64 64;" xml:space="preserve">
<path fill="#666666" d="M9.8,7.2c-2.5,0-4.5,2-4.5,4.5v22.9c0,2.5,2,4.5,4.5,4.5h27.1c3.6,5,12.8,17.9,12.9,17.5 c0.1-0.3,0.2-12.5,0.3-17.5h4.1c2.5,0,4.5-2,4.5-4.5V11.7c0-2.5-2-4.5-4.5-4.5H9.8z M16.6,16.8c0.6,0,1.2,0.1,1.7,0.3 c0.5,0.2,0.9,0.4,1.3,0.7c0.3,0.3,0.6,0.6,0.8,1c0.2,0.4,0.3,0.7,0.3,1.1c0,0.4-0.1,0.7-0.3,0.9c-0.2,0.2-0.5,0.4-0.8,0.4 c-0.3,0-0.5-0.1-0.7-0.3c-0.2-0.2-0.4-0.5-0.6-0.9c-0.2-0.3-0.4-0.6-0.7-0.8s-0.6-0.3-1-0.3c-0.4,0-0.8,0.1-1.1,0.4 c-0.3,0.3-0.4,0.6-0.4,1c0,0.4,0.1,0.6,0.3,0.9c0.2,0.2,0.5,0.4,0.9,0.6c0.4,0.1,0.9,0.3,1.5,0.5c0.8,0.3,1.4,0.6,1.9,0.9 c0.5,0.4,0.9,0.8,1.1,1.3c0.3,0.5,0.4,1,0.4,1.6c0,0.9-0.2,1.7-0.5,2.4c-0.3,0.7-0.8,1.2-1.5,1.5c-0.6,0.3-1.4,0.5-2.4,0.5 c-0.9,0-1.6-0.2-2.3-0.6c-0.6-0.4-1.1-0.8-1.4-1.4c-0.3-0.6-0.4-1.1-0.4-1.7c0-0.4,0.1-0.7,0.3-0.9c0.2-0.3,0.4-0.4,0.7-0.4 c0.3,0,0.5,0.1,0.6,0.3c0.1,0.2,0.3,0.4,0.4,0.7c0.3,0.6,0.6,1,0.9,1.3c0.4,0.3,0.8,0.4,1.4,0.4c0.5,0,0.9-0.2,1.2-0.4 c0.3-0.3,0.5-0.6,0.5-1c0-0.6-0.2-1-0.5-1.3c-0.3-0.3-0.9-0.5-1.6-0.8c-0.8-0.3-1.5-0.6-2.1-0.9c-0.5-0.3-0.9-0.7-1.3-1.3 s-0.5-1.2-0.5-1.9c0-0.7,0.2-1.3,0.4-1.9s0.7-1.1,1.3-1.4C15.1,17,15.8,16.8,16.6,16.8L16.6,16.8z M24.2,16.8c0.3,0,0.6,0.2,0.8,0.5 c0.2,0.3,0.3,0.7,0.3,1.3v0.3c0.4-0.7,0.9-1.2,1.4-1.5c0.5-0.3,1-0.5,1.6-0.5c0.6,0,1.2,0.2,1.6,0.5s0.8,0.8,1.1,1.5 c0.4-0.7,0.9-1.2,1.3-1.5c0.5-0.3,1-0.5,1.6-0.5c0.7,0,1.3,0.2,1.7,0.5s0.8,0.9,1.1,1.6c0.2,0.6,0.3,1.6,0.3,2.9v6.6 c0,0.7-0.1,1.2-0.4,1.6c-0.2,0.4-0.5,0.5-0.9,0.5c-0.4,0-0.7-0.2-0.9-0.5c-0.2-0.4-0.4-0.9-0.4-1.6v-5.7c0-0.7,0-1.3-0.1-1.7 c0-0.4-0.2-0.8-0.4-1.1c-0.2-0.3-0.5-0.4-0.9-0.4c-0.3,0-0.6,0.1-0.9,0.4c-0.3,0.3-0.5,0.6-0.7,1.1c-0.2,0.6-0.3,1.6-0.3,3v4.5 c0,0.7-0.1,1.2-0.3,1.6c-0.2,0.4-0.5,0.5-0.9,0.5c-0.4,0-0.7-0.2-0.9-0.5c-0.2-0.4-0.3-0.9-0.3-1.6V23c0-0.8,0-1.5-0.1-2 c0-0.5-0.2-0.9-0.3-1.1c-0.2-0.3-0.5-0.4-0.9-0.4c-0.8,0-1.3,0.4-1.6,1.1c-0.3,0.8-0.4,1.8-0.4,3.3v4.5c0,0.7-0.1,1.2-0.4,1.6 c-0.2,0.4-0.5,0.5-0.9,0.5c-0.4,0-0.7-0.2-0.9-0.5c-0.2-0.4-0.3-0.9-0.3-1.6v-9.6c0-0.6,0.1-1.1,0.3-1.4 C23.6,16.9,23.9,16.8,24.2,16.8L24.2,16.8z M43,16.8c0.6,0,1.2,0.1,1.7,0.3c0.5,0.2,0.9,0.4,1.3,0.7c0.3,0.3,0.6,0.6,0.8,1 c0.2,0.4,0.3,0.7,0.3,1.1c0,0.4-0.1,0.7-0.3,0.9c-0.2,0.2-0.5,0.4-0.8,0.4c-0.3,0-0.5-0.1-0.7-0.3c-0.2-0.2-0.4-0.5-0.6-0.9 c-0.2-0.3-0.4-0.6-0.7-0.8c-0.3-0.2-0.6-0.3-1-0.3c-0.4,0-0.8,0.1-1.1,0.4c-0.3,0.3-0.4,0.6-0.4,1c0,0.4,0.1,0.6,0.3,0.9 c0.2,0.2,0.5,0.4,0.9,0.6c0.4,0.1,0.9,0.3,1.5,0.5c0.8,0.3,1.4,0.6,1.9,0.9c0.5,0.4,0.9,0.8,1.1,1.3c0.3,0.5,0.4,1,0.4,1.6 c0,0.9-0.2,1.7-0.5,2.4c-0.3,0.7-0.8,1.2-1.5,1.5c-0.6,0.3-1.4,0.5-2.4,0.5c-0.9,0-1.6-0.2-2.3-0.6c-0.6-0.4-1.1-0.8-1.4-1.4 c-0.3-0.6-0.5-1.1-0.5-1.7c0-0.4,0.1-0.7,0.3-0.9s0.4-0.4,0.7-0.4c0.3,0,0.5,0.1,0.6,0.3c0.1,0.2,0.3,0.4,0.4,0.7 c0.3,0.6,0.6,1,0.9,1.3c0.4,0.3,0.8,0.4,1.4,0.4c0.5,0,0.9-0.2,1.2-0.4c0.3-0.3,0.5-0.6,0.5-1c0-0.6-0.2-1-0.5-1.3 c-0.3-0.3-0.9-0.5-1.6-0.8c-0.8-0.3-1.5-0.6-2.1-0.9c-0.5-0.3-1-0.7-1.3-1.3c-0.3-0.5-0.5-1.2-0.5-1.9c0-0.7,0.1-1.3,0.4-1.9 s0.7-1.1,1.3-1.4C41.5,17,42.2,16.8,43,16.8L43,16.8z"/>
</svg>
